<svg width="192" height="192" viewBox="0 0 192 192" fill="none" xmlns="http://www.w3.org/2000/svg">
<circle cx="96" cy="96" r="96" fill="#3770AA"/>
<path d="M161 119.946C156.19 134.459 148.292 145.726 137.306 153.744C126.32 161.763 113.417 165.773 98.5964 165.773C80.0702 165.773 64.3394 159.013 51.4036 145.494C38.4678 131.908 32 115.572 32 96.4858C32 77.4657 38.4678 61.1631 51.4036 47.5773C64.3394 33.859 80.0702 27 98.5964 27C113.482 27 126.45 31.0757 137.501 39.2271C148.487 47.246 156.32 58.5452 161 73.125L130.871 88.5332C129.376 80.3155 125.67 73.6552 119.755 68.5523C113.775 63.4494 106.722 60.8979 98.5964 60.8979C89.1708 60.8979 81.2404 64.4434 74.805 71.5345C68.4346 78.6256 65.2494 86.9426 65.2494 96.4858C65.2494 106.095 68.4346 114.445 74.805 121.536C81.2404 128.628 89.1708 132.173 98.5964 132.173C106.722 132.173 113.775 129.588 119.755 124.419C125.67 119.25 129.376 112.623 130.871 104.538L161 119.946Z" fill="#F09120"/>
</svg>
